# xmcd
#
# Track frame offsets:
#	150
#	11002
#	29538
#	41657
#	54266
#	68517
#	81744
#	95233
#	114425
#	122799
#	135021
#	147896
#	165181
#	178986
#	192430
#	205420
#
# Disc length: 2885 seconds
# Revision: 0
# Processed by: cddbd v1.5.2PL0 Copyright (c) Steve Scherf et al.
# Submitted via: dBpowerAMP V12.0
#
DISCID=e00b4310
DTITLE=Indigo Duck - Quack
DYEAR=2009
DGENRE=Undefined
TTITLE0=All By Myself
TTITLE1=Jug Band Music
TTITLE2=Ain't She Sweet
TTITLE3=From Four Till Late
TTITLE4=Blues My Naughty Sweety Gives To Me
TTITLE5=Gentleman Jack
TTITLE6=That'll Never Happen No More
TTITLE7=Cocaine Habit Blues
TTITLE8=Lyssandra
TTITLE9=Ring A Rosie Rag
TTITLE10=Out With The Wrong Woman
TTITLE11=Maggie
TTITLE12=Trouble In Mind
TTITLE13=Sister Kate
TTITLE14=One Way Gal
TTITLE15=The Mystery Song
EXTD=
EXTT0=
EXTT1=
EXTT2=
EXTT3=
EXTT4=
EXTT5=
EXTT6=
EXTT7=
EXTT8=
EXTT9=
EXTT10=
EXTT11=
EXTT12=
EXTT13=
EXTT14=
EXTT15=
PLAYORDER=
